PathFileType	4	(X/Y/Z)	C:\Users\Basilio\Documents\Thesis Gigler\squatting_fais\c3dfiles\019\SLS_front_pre3\markers_experimental.trc
DataRate	CameraRate	NumFrames	NumMarkers	Units	OrigDataRate	OrigDataStartFrame	OrigNumFrames
200.000000	200.000000	4	59	mm	200.000000	329	1316
Frame#	Time	LBHD			RBHD			C7			T10			LSHO			LUUPA			LMUPA			LDUPA			LLEP			LMEP			LRAD			LUL			LRFIN			RSHO			RUPA1			RMUPA			RDUPA			RLEP			RMEP			RRAD			RUL			RUFIN			LASI			RASI			USACR			LSACR			RSACR			LTHI1			LTHI2			LTHI3			LTHI4			LLFC			LTIB1			LTIB2			LTIB3			LTIB4			LLMAL			LMMAL			LHEE			LMT1			LMT2			LMT5			RTHI			RTHI2			RTHI3			RTHI4			RLFC			RTIB1			RTIB2			RTIB3			RTIB4			RLMAL			RMMAL			RHEE			RMT1			RMT2			RMT5			FHD			CLAV			
		X1	Y1	Z1	X2	Y2	Z2	X3	Y3	Z3	X4	Y4	Z4	X5	Y5	Z5	X6	Y6	Z6	X7	Y7	Z7	X8	Y8	Z8	X9	Y9	Z9	X10	Y10	Z10	X11	Y11	Z11	X12	Y12	Z12	X13	Y13	Z13	X14	Y14	Z14	X15	Y15	Z15	X16	Y16	Z16	X17	Y17	Z17	X18	Y18	Z18	X19	Y19	Z19	X20	Y20	Z20	X21	Y21	Z21	X22	Y22	Z22	X23	Y23	Z23	X24	Y24	Z24	X25	Y25	Z25	X26	Y26	Z26	X27	Y27	Z27	X28	Y28	Z28	X29	Y29	Z29	X30	Y30	Z30	X31	Y31	Z31	X32	Y32	Z32	X33	Y33	Z33	X34	Y34	Z34	X35	Y35	Z35	X36	Y36	Z36	X37	Y37	Z37	X38	Y38	Z38	X39	Y39	Z39	X40	Y40	Z40	X41	Y41	Z41	X42	Y42	Z42	X43	Y43	Z43	X44	Y44	Z44	X45	Y45	Z45	X46	Y46	Z46	X47	Y47	Z47	X48	Y48	Z48	X49	Y49	Z49	X50	Y50	Z50	X51	Y51	Z51	X52	Y52	Z52	X53	Y53	Z53	X54	Y54	Z54	X55	Y55	Z55	X56	Y56	Z56	X57	Y57	Z57	X58	Y58	Z58	X59	Y59	Z59	

330	1.645	-423.946746826172	1678.699340820313	-810.4378051757815	-424.261688232422	1673.484619140625	-670.5983276367189	-445.0010681152345	1501.781372070313	-728.0964965820314	-480.1128540039064	1212.767456054688	-724.3013305664064	-375.8381958007813	1505.948608398438	-871.8150634765627	-252.6773223876954	1484.916870117188	-932.396179199219	-221.9169311523438	1477.749145507813	-888.8947753906252	-186.4877319335938	1483.596801757813	-936.0175781250002	-115.3920059204102	1459.249755859375	-972.4750976562502	-114.4814605712891	1400.168212890625	-961.5805664062502	136.6359252929688	1461.809448242188	-887.0179443359377	132.0957641601563	1470.112670898438	-954.1594238281252	208.9676666259766	1475.52392578125	-885.9236450195315	-353.0786132812501	1503.337280273438	-610.8742675781251	-225.9210052490235	1443.086547851563	-514.6337890625001	-204.2475280761719	1470.394775390625	-549.7037353515626	-156.7117767333985	1441.979858398438	-516.4866333007814	-82.21487426757814	1443.136474609375	-531.5661010742189	-89.64256286621095	1383.019409179688	-544.2169799804689	147.6085205078125	1470.355102539063	-627.8937988281251	163.7989349365235	1472.536376953125	-564.8140869140626	235.9812164306641	1486.604248046875	-634.3216552734376	-335.9086914062501	1011.811584472656	-854.6352539062502	-315.1644287109376	996.9819335937502	-645.9415893554689	-484.5298461914064	1078.525634765625	-729.8369140625001	-493.1121215820314	1047.26708984375	-758.4492187500001	-485.5546875000001	1046.054565429688	-701.0613403320314	-323.4180297851563	769.4758911132815	-941.7178955078127	-260.9850769042969	711.0471801757814	-941.6162109375002	-220.6127166748047	730.6042480468751	-924.1635742187502	-266.0793457031251	650.4877319335939	-936.569030761719	-245.2127532958985	557.4573974609376	-929.6905517578127	-200.5282897949219	415.3320312500001	-908.2098388671877	-260.9958190917969	379.0470275878907	-961.3626098632815	-224.0415954589844	371.9792175292969	-939.5354003906252	-230.8760528564454	290.2062377929688	-909.714050292969	-307.7588500976563	167.9518585205078	-937.500183105469	-286.9114379882813	168.1121063232422	-860.006774902344	-378.1063232421876	132.5505065917969	-886.792907714844	-168.2770233154297	90.50483703613283	-890.5742797851565	-163.7275085449219	94.58226013183595	-926.4404296875002	-214.2283477783204	78.3074188232422	-975.8181762695315	-341.1214294433594	794.325378417969	-578.8116455078126	-293.5839233398438	751.7644653320314	-589.0761718750001	-270.3393554687501	759.7474365234376	-613.6550292968751	-307.8318176269532	668.3699951171876	-592.9954223632814	-325.5762329101563	507.5923461914064	-633.9589843750001	-293.0898742675782	331.9258117675782	-708.2095947265626	-348.5028381347657	250.3618774414063	-656.9988403320314	-315.6476440429688	249.0653686523438	-691.3230590820314	-329.1792297363282	212.0205078125001	-735.1871948242189	-392.5701599121095	127.3237380981446	-696.5726928710939	-378.3644104003907	136.8687438964844	-772.284606933594	-455.9974975585939	106.4870147705078	-749.1512451171876	-257.5592956542969	55.71031188964845	-774.8128051757815	-249.3155822753907	54.39141082763673	-732.5854492187501	-292.8457031250001	49.76059341430665	-674.5709838867189	-294.7751464843751	1719.15380859375	-670.9776611328126	-309.2739562988282	1459.203491210938	-740.9845581054689	
331	1.65	-423.6801147460939	1678.577514648438	-809.778503417969	-423.8569946289064	1672.954711914063	-670.0274658203126	-444.9400329589845	1501.675170898438	-727.4943237304689	-480.494110107422	1212.727905273438	-723.8264770507814	-375.5108947753907	1505.776245117188	-871.0075683593752	-252.692123413086	1484.678100585938	-932.028015136719	-221.7765350341797	1477.581909179688	-888.4600830078127	-186.648422241211	1483.340209960938	-935.6233520507815	-115.4446640014649	1458.959594726563	-972.0315551757815	-114.6625671386719	1399.798706054688	-961.240905761719	136.5574951171875	1461.337768554688	-886.8145751953127	131.1271209716797	1469.36083984375	-954.4173583984377	208.9069519042969	1474.7841796875	-885.7026977539065	-352.9739379882813	1503.06201171875	-610.3784790039064	-225.6376647949219	1442.648071289063	-514.1007080078126	-204.2155761718751	1470.105712890625	-549.2843627929689	-156.547592163086	1441.673461914063	-516.2850952148439	-81.98336791992189	1442.769775390625	-531.2140502929689	-89.54424285888673	1382.7314453125	-543.7867431640626	147.8648223876953	1469.760009765625	-627.7301635742189	163.850082397461	1472.106201171875	-564.6121826171876	236.3341369628907	1485.579956054688	-633.8800048828126	-336.4455566406251	1011.674987792969	-854.2698974609377	-315.5989990234376	996.890075683594	-645.6375122070314	-484.9042053222657	1078.439697265625	-729.4432983398439	-493.8933105468751	1047.33544921875	-758.0047607421876	-486.0978088378907	1045.995727539063	-700.5900268554689	-323.2969055175782	769.5439453125002	-941.2917480468752	-260.8471374511719	711.2655029296876	-941.0198364257815	-220.5702819824219	731.0629272460939	-923.538513183594	-265.8191833496094	650.8037109375001	-935.9978027343752	-244.4714813232422	557.7120361328126	-929.0161132812502	-198.4778442382813	416.2400817871095	-907.0357055664065	-258.3059692382813	379.0183715820313	-960.1765747070315	-221.188217163086	372.5164794921876	-938.448913574219	-227.0554656982422	290.6922607421876	-908.4758300781252	-302.0706481933594	166.9067535400391	-936.0891113281252	-281.3817138671876	168.098617553711	-858.3298339843752	-364.9204406738282	127.5085678100586	-881.7352294921877	-160.7822723388672	91.74517822265626	-886.4006347656252	-157.0030822753907	95.69866943359376	-924.4678344726565	-207.3060302734376	78.15936279296876	-973.9504394531252	-341.4566955566407	794.0687255859377	-578.3917846679689	-293.8434448242188	751.6690063476564	-588.5974121093751	-270.6197204589844	759.7454223632814	-613.2067260742189	-308.0092468261719	668.3955688476564	-592.7155761718751	-325.3579711914063	507.508270263672	-633.6066894531251	-293.0587158203126	331.8562622070313	-708.0648193359376	-348.5012207031251	250.3319702148438	-656.8536987304689	-315.6133117675782	248.9714660644532	-691.1267089843751	-329.1074218750001	211.9984741210938	-735.0687255859376	-392.5026245117189	127.2809982299805	-696.5005493164064	-378.1320495605469	136.9764099121094	-772.2478637695315	-456.0193176269532	106.5189285278321	-749.1394653320314	-257.6088256835938	55.71250534057619	-774.7930297851565	-249.2903900146485	54.36304092407228	-732.5940551757814	-292.8280029296876	49.74824905395509	-674.5098266601564	-294.5493774414063	1719.004638671875	-670.6893920898439	-309.1617431640626	1458.89208984375	-740.5034179687501	
332	1.655	-424.0150451660157	1678.544921875	-809.2707519531252	-423.6177062988282	1672.7802734375	-669.3171386718751	-444.9050903320314	1501.54345703125	-726.8570556640626	-480.721893310547	1212.5888671875	-723.3909912109376	-375.1674499511719	1505.556396484375	-870.2195434570315	-252.6199493408204	1484.547241210938	-931.622985839844	-220.7654113769532	1477.503295898438	-887.8991699218752	-186.5157623291016	1483.0263671875	-935.1134033203127	-115.5457534790039	1458.591064453125	-971.6289062500002	-114.7863006591797	1399.43359375	-960.9124755859377	136.261962890625	1461.054321289063	-886.7281494140627	131.3678131103516	1468.732177734375	-954.0565185546877	208.9298400878907	1473.972290039063	-885.3912353515627	-352.7444458007813	1502.738159179688	-609.9720458984376	-225.424301147461	1442.343505859375	-513.6342773437501	-203.9660339355469	1469.708862304688	-548.8755493164064	-156.3753051757813	1441.24609375	-515.8602905273439	-81.84825897216798	1442.336791992188	-530.8556518554689	-89.26930999755861	1382.1943359375	-543.3226318359376	148.2977447509766	1468.628784179688	-629.2717285156251	163.9692840576172	1471.646118164063	-564.3208618164064	236.4821166992188	1484.886474609375	-633.8237915039064	-336.9744262695313	1011.542724609375	-853.9118652343752	-316.2032775878907	996.6601562500002	-645.2830810546876	-485.3591613769532	1078.33544921875	-729.0560913085939	-494.5581054687501	1047.3310546875	-757.6037597656251	-486.5694885253907	1045.889770507813	-700.1203613281251	-323.4078063964844	769.6975708007815	-940.8574829101565	-260.6970214843751	711.5775146484376	-940.5009765625002	-220.5545196533204	731.4602050781251	-922.915222167969	-265.4155578613282	651.0190429687501	-935.3345947265627	-243.7813873291016	557.9216308593751	-928.2371826171877	-195.8191833496094	416.9712829589845	-906.0642089843752	-255.4924011230469	378.8222045898438	-959.0423583984377	-218.2422180175782	372.9866027832032	-937.5203857421877	-223.0553588867188	291.1189575195313	-907.2415161132815	-296.4515991210938	166.3040924072266	-934.6557617187502	-275.4171142578126	167.783203125	-856.7846679687502	-366.0603332519532	130.1014862060547	-883.3391723632815	-154.2652282714844	92.74018859863283	-884.5809326171877	-150.6887512207032	96.29243469238284	-922.5430297851565	-200.8884277343751	78.42226409912111	-972.1314086914065	-341.8147888183594	793.986999511719	-578.0083007812501	-294.1059875488282	751.5084838867189	-588.2681884765626	-270.9260559082032	759.7255249023439	-612.9118652343751	-308.0996398925782	668.3654174804689	-592.4461059570314	-325.2377624511719	507.327117919922	-633.3189086914064	-292.9862365722657	331.7722473144532	-707.7604370117189	-348.4438781738282	250.2008666992188	-656.7267456054689	-315.5740966796876	248.9331512451172	-691.0023193359376	-329.0147094726563	212.0137481689454	-734.9936523437501	-392.5456542968751	127.2656402587891	-696.4289550781251	-378.0450744628907	136.8718414306641	-772.1038818359377	-456.0485229492189	106.5210723876953	-749.1425170898439	-258.1249694824219	55.79103851318361	-774.668884277344	-249.3263397216797	54.39034652709962	-732.6019287109376	-292.8323669433594	49.75490951538087	-674.5112915039064	-294.1611938476563	1718.570922851563	-670.0934448242189	-309.2141723632813	1458.591430664063	-740.0590820312501	
333	1.66	-423.9098510742189	1678.413330078125	-808.5776367187502	-423.3730773925782	1672.427368164063	-668.6260375976564	-444.9465332031251	1501.437255859375	-726.2601928710939	-481.1437072753907	1212.591918945313	-722.9000244140626	-375.6307373046876	1505.529541015625	-870.0335693359377	-252.6866912841797	1484.333740234375	-931.1636962890627	-220.8479766845704	1477.183715820313	-887.4663696289065	-186.5531921386719	1482.71875	-934.6791992187502	-115.6771316528321	1458.26416015625	-971.2912597656252	-115.0049133300782	1399.079345703125	-960.6084594726565	136.3987579345703	1460.291748046875	-886.5180664062502	131.4056854248047	1468.124389648438	-953.8024902343752	208.8926544189454	1473.273315429688	-885.357116699219	-352.3937377929688	1502.567504882813	-609.4594726562501	-228.1114959716797	1439.568481445313	-516.5827026367189	-203.7430267333985	1469.329467773438	-548.5195922851564	-156.2138366699219	1440.914916992188	-515.5938720703126	-81.62442779541017	1441.95361328125	-530.5361328125001	-89.23427581787111	1381.940307617188	-543.2139282226564	148.5174865722657	1468.343383789063	-628.0992431640626	164.2645416259766	1470.98291015625	-563.9529418945314	236.6882019042969	1484.430541992188	-633.5180664062501	-337.5618896484376	1011.348876953125	-853.5515136718752	-316.6431274414063	996.4234619140627	-644.9719238281251	-485.8611755371095	1078.233642578125	-728.6046752929689	-495.1483154296876	1047.372924804688	-757.1814575195314	-486.9338378906251	1045.720336914063	-699.7131958007814	-323.5365600585938	769.7459106445315	-940.4815063476565	-260.5693054199219	711.8516845703126	-939.9758300781252	-220.5708465576172	731.8881225585939	-922.2175903320315	-265.1730651855469	651.2533569335939	-934.7116699218752	-243.1473541259766	558.2864379882814	-927.4404296875002	-193.1709136962891	417.828582763672	-905.2065429687502	-252.7582702636719	378.9430541992188	-957.8945922851565	-215.5152435302735	373.5511779785157	-936.458435058594	-219.0154418945313	291.5688171386719	-906.0024414062502	-290.5803527832032	165.5730743408203	-933.251159667969	-271.1334228515626	167.9848785400391	-856.1675415039065	-352.9126586914063	125.3860015869141	-878.4124145507815	-147.6695709228516	93.61246490478517	-882.9184570312502	-144.1953735351563	97.13615417480472	-920.8821411132815	-194.0260162353516	78.56027221679689	-970.323425292969	-342.0985717773438	793.709655761719	-577.6820678710939	-294.2985229492188	751.5859985351564	-588.2246093750001	-271.2988281250001	759.7227783203126	-612.8569335937501	-308.2400817871094	668.2407226562501	-592.0287475585939	-325.0964660644532	507.189910888672	-633.0385131835939	-292.8077697753907	331.7108459472657	-707.5531616210939	-348.5388793945313	250.2593231201172	-656.7393798828126	-315.5111389160157	248.8479309082032	-690.8091430664064	-328.9715576171876	212.0011444091797	-734.9062500000001	-392.5448608398439	127.2314987182617	-696.4024658203126	-378.0240173339844	136.8900909423828	-772.2327270507815	-455.9802856445314	106.5590133666992	-749.1296386718751	-257.8845825195313	55.92160797119142	-774.5572509765627	-249.4235992431641	54.9027557373047	-730.9744262695314	-292.8496093750001	49.66882705688478	-674.5247802734376	-293.9096679687501	1718.2509765625	-669.2579345703126	-309.1675109863282	1458.395629882813	-739.6170654296876	
